<svg width="40" height="40" viewBox="0 0 40 40" fill="none" xmlns="http://www.w3.org/2000/svg">
<path fill-rule="evenodd" clip-rule="evenodd" d="M26.7678 12.0608C25.7915 11.0845 24.2085 11.0845 23.2322 12.0608L12.2322 23.0608C11.7634 23.5297 11.5 24.1656 11.5 24.8286V28.0002V28.5002H12L15.1716 28.5002C15.8346 28.5002 16.4705 28.2368 16.9393 27.768L27.9393 16.768C28.9157 15.7916 28.9157 14.2087 27.9393 13.2324L26.7678 12.0608ZM23.9393 12.768C24.5251 12.1822 25.4749 12.1822 26.0607 12.768L27.2322 13.9395C27.818 14.5253 27.818 15.4751 27.2322 16.0608L26 17.2931L22.7071 14.0002L23.9393 12.768ZM22 14.7073L12.9393 23.768C12.658 24.0493 12.5 24.4308 12.5 24.8286L12.5 27.5002H15.1716C15.5694 27.5002 15.9509 27.3422 16.2322 27.0608L25.2929 18.0002L22 14.7073Z" fill="#98A3CF"/>
</svg>
